<?xml version="1.0" encoding="utf-8"?>
<svg width="100px" height="100px" viewBox="0 0 100 100" version="1.1" xmlns:xlink="http://www.w3.org/1999/xlink" xmlns="http://www.w3.org/2000/svg">
  <defs>
    <path d="M0 0L100 0L100 100L0 100L0 0Z" id="path_1" />
    <clipPath id="mask_1">
      <use xlink:href="#path_1" />
    </clipPath>
  </defs>
  <g id="icons8_couple_shopping_bag_2">
    <path d="M0 0L100 0L100 100L0 100L0 0Z" id="Fundo" fill="#FFFFFF" fill-opacity="0" fill-rule="evenodd" stroke="none" />
    <g clip-path="url(#mask_1)">
      <path d="M22.4999 56.5C22.1782 56.4997 21.8808 56.6712 21.7198 56.9498C21.5589 57.2284 21.5589 57.5717 21.7198 57.8502C21.8808 58.1288 22.1782 58.3003 22.4999 58.3C22.997 58.3 23.3999 57.8971 23.3999 57.4C23.3999 56.9029 22.997 56.5 22.4999 56.5L22.4999 56.5ZM81.7 31.8C81.3134 31.8 81 32.1134 81 32.5C81 32.8866 81.3134 33.2 81.7 33.2C82.0866 33.2 82.4 32.8866 82.4 32.5C82.4 32.1134 82.0866 31.8 81.7 31.8L81.7 31.8Z" id="Forma" fill="#FFFFFF" fill-rule="evenodd" stroke="none" />
      <path d="M79.0001 12.5C78.503 12.5 78.1001 12.9029 78.1001 13.4C78.1001 13.8971 78.503 14.3 79.0001 14.3C79.3218 14.3003 79.6192 14.1288 79.7802 13.8502C79.9411 13.5717 79.9411 13.2283 79.7802 12.9498C79.6192 12.6712 79.3218 12.4997 79.0001 12.5L79.0001 12.5ZM23.0001 64.2C22.503 64.2 22.1001 64.603 22.1001 65.1C22.1001 65.5971 22.503 66 23.0001 66C23.4972 66 23.9001 65.5971 23.9001 65.1C23.9001 64.603 23.4972 64.2 23.0001 64.2L23.0001 64.2Z" id="Forma" fill="#F1BC19" fill-rule="evenodd" stroke="none" />
      <path d="M51.8 13.2C31.0894 13.2 14.3001 29.9893 14.3 50.6999C14.3 71.4105 31.0892 88.1999 51.7999 88.2C72.5105 88.2001 89.2999 71.4108 89.2999 50.7002C89.3001 29.9896 72.5109 13.2002 51.8002 13.2L51.8 13.2Z" id="Forma" fill="#FCE0A2" stroke="none" />
      <path d="M84.5 11.6C82.2909 11.6 80.5 13.3908 80.5 15.6C80.5 17.8091 82.2908 19.6 84.5 19.6C86.7091 19.6 88.5 17.8091 88.5 15.6C88.5 13.3909 86.7092 11.6 84.5 11.6L84.5 11.6Z" id="Forma" fill="#F1BC19" stroke="none" />
      <path d="M14.2999 27.3C13.621 27.2998 12.9935 27.6619 12.654 28.2499C12.3145 28.8378 12.3145 29.5623 12.6541 30.1502C12.9936 30.7381 13.6211 31.1002 14.3 31.1C15.3494 31.1 16.2 30.2493 16.2 29.1999C16.2 28.1506 15.3493 27.3 14.2999 27.3L14.2999 27.3Z" id="Forma" fill="#00A5A5" stroke="none" />
      <path d="M79.5001 75.3C78.8206 75.299 78.1922 75.6609 77.8522 76.2492C77.5122 76.8374 77.5122 77.5625 77.8522 78.1508C78.1923 78.7391 78.8206 79.101 79.5001 79.1C80.18 79.1017 80.8091 78.7399 81.1495 78.1514C81.49 77.5628 81.49 76.8372 81.1495 76.2486C80.809 75.66 80.18 75.2983 79.5 75.3L79.5001 75.3ZM37.7002 79.5C35.4911 79.5 33.7002 81.2909 33.7002 83.5C33.7002 85.7091 35.491 87.5 37.7002 87.5C39.9093 87.5 41.7002 85.7092 41.7002 83.5C41.7002 81.2909 39.9093 79.5 37.7002 79.5L37.7002 79.5Z" id="Forma" fill="#FBCD59" fill-rule="evenodd" stroke="none" />
      <path d="M28.1 84.7C27.0506 84.7 26.2 85.5507 26.2 86.6C26.1999 87.6493 27.0506 88.5 28.0999 88.5C29.1493 88.5 29.9999 87.6494 29.9999 86.6C30 85.5507 29.1493 84.7 28.1 84.7L28.1 84.7Z" id="Forma" fill="#00A5A5" stroke="none" />
      <path d="M12.4001 40.3C11.406 40.3 10.6001 41.1059 10.6001 42.1C10.6001 43.0941 11.406 43.9 12.4001 43.9C13.0436 43.9006 13.6384 43.5576 13.9603 43.0005C14.2822 42.4433 14.2822 41.7567 13.9603 41.1995C13.6384 40.6423 13.0435 40.2994 12.4001 40.3L12.4001 40.3ZM59.5001 77.7C58.0642 77.7 56.9001 78.864 56.9001 80.3C56.9001 81.7359 58.0642 82.9 59.5001 82.9C60.9361 82.9 62.1001 81.7359 62.1001 80.3C62.1001 78.8641 60.9361 77.7 59.5002 77.7L59.5001 77.7Z" id="Forma" fill="#FFFFFF" fill-rule="evenodd" stroke="none" />
      <path d="M64.7001 33.7C64.7001 28.7 59.3001 24.7 52.7001 24.7C46.1001 24.7 40.6001 28.7 40.6001 33.7C40.6001 38.7 46.0001 42.7 52.7001 42.7L54.2001 42.7C55.9001 44.3 58.1001 45.3 60.4001 45.6C60.8001 45.6 61.1001 45.4 61.2001 45C61.2001 44.9 61.2001 44.7 61.1001 44.6C60.5001 43.3 60.2001 42 60.2001 40.6L60.2001 40.6C63.1001 39 64.8001 36.4 64.7001 33.7" id="Forma" fill="#FDFCEF" stroke="none" />
      <path d="M60.5001 46.2C60.4001 46.2 60.4001 46.2 60.3001 46.2C57.9001 45.9 55.8001 44.9 54.0001 43.3L52.7001 43.3C45.8001 43.3 40.1001 39 40.1001 33.8C40.1001 28.6 45.7001 24.3 52.7001 24.3C59.5001 24.3 65.0001 28.4 65.2001 33.5C65.2001 33.6 65.3001 33.6 65.3001 33.7C65.3001 36.6 63.7001 39.2 60.8001 41C60.8001 42.2 61.1001 43.4 61.6001 44.5C61.7001 44.7 61.7001 44.9 61.7001 45.1C61.6001 45.8 61.1001 46.2 60.5001 46.2L60.5001 46.2ZM52.7001 25.2C46.3001 25.2 41.1001 29 41.1001 33.7C41.1001 38.4 46.3001 42.2 52.7001 42.2L54.2001 42.2C54.3001 42.2 54.4001 42.2 54.5001 42.3C56.2001 43.8 58.2001 44.8 60.4001 45.1C60.5001 45.1 60.6001 45 60.6001 45C60.0001 43.6 59.7001 42.2 59.7001 40.7C59.7001 40.5 59.8001 40.4 59.9001 40.3C62.5001 38.7 64.1001 36.4 64.2001 33.9C64.2001 33.8 64.2001 33.8 64.2001 33.7C64.2001 29 59.1001 25.2 52.7001 25.2L52.7001 25.2Z" id="Forma" fill="#472B29" fill-rule="evenodd" stroke="none" />
      <path d="M39.2999 43C39.3999 42 39.0999 41 39.0999 40.5L39.0999 40.5C38.1999 39.4 37.5999 38 36.2999 37.2C34.8999 36.3 33.2999 35.6 31.5999 35.2C27.6999 34.2 23.7999 37.1 22.5999 40.8C22.5999 40.8 22.5999 40.8 22.5999 40.9C22.6999 41.6 22.7999 42.2 22.8999 42.9C21.7999 42.9 21.2999 43.5 21.5999 44.6C21.5999 44.6 21.9999 46.4 22.2999 47.3C22.3999 47.8 22.7999 48.1 23.2999 48.1C23.2999 48.7 23.2999 49.3 23.2999 49.8C23.2999 50.5 23.4999 51.2 23.8999 51.8C24.8999 53.3 30.2999 56.8 31.5999 56.7C33.6999 56.7 37.8999 53.1 38.8999 51.4C39.0999 51 39.1999 50.6 39.1999 50.2C39.1999 49.5 39.1999 48.8 39.1999 48.2C39.5999 48.2 39.9999 47.8 40.0999 47.4C40.3999 46.5 40.7999 44.7 40.7999 44.7C41.0999 43.6 40.2999 43 39.2999 43L39.2999 43Z" id="Forma" fill="#F6CCA4" stroke="none" />
      <path d="M42.4999 60.8L42.2999 60.7L41.8999 60.5C41.0999 60.1 35.4999 58.2 35.4999 58.2C35.0999 58.1 34.7999 57.8 34.6999 57.4C34.4999 56.7 34.4999 56.1 34.4999 55.4C33.5999 55.8 32.5999 56.2 31.5999 56.4C30.2999 56.5 27.9999 54.8 27.9999 54.8C27.9999 54.8 27.8999 56.9 27.7999 57.4C27.6999 57.8 27.2999 58.1 26.8999 58.2L21.4999 60C20.9999 60.1 20.4999 60.4 19.9999 60.6C18.8999 61.4 17.9999 62.5 17.6999 63.8L17.6999 63.8C17.6999 63.9 17.6999 64 17.5999 64.2C17.4999 64.7 17.4999 68.5 17.4999 68.6C17.4999 68.9 17.3999 69.3 17.3999 69.6C22.6999 73.2 26.8999 74.3 34.1999 73.9C37.8999 73.5 41.5999 72.5 44.9999 70.9C44.7999 64.5 45.3999 61.7 42.4999 60.8L42.4999 60.8Z" id="Forma" fill="#EDBC94" stroke="none" />
      <g id="Group" transform="translate(24.899902 47.600006)" opacity="0.3">
        <path d="M1.4 0C0.626804 0 3.05176e-06 0.6268 0 1.4C-1.52588e-06 2.17319 0.626798 2.8 1.39999 2.8C2.17319 2.80001 2.8 2.17321 2.8 1.40001C2.8 0.62681 2.17321 6.10351e-06 1.40001 0L1.4 0ZM11.7999 0C11.0267 0 10.3999 0.6268 10.3999 1.4C10.3999 2.17319 11.0267 2.8 11.7999 2.8C12.5731 2.80001 13.1999 2.17321 13.1999 1.40001C13.1999 0.62681 12.5731 6.10351e-06 11.7999 0L11.7999 0Z" id="Forma" fill="#F4989E" fill-opacity="0.8" fill-rule="evenodd" stroke="none" />
      </g>
      <path d="M23.5 48.8C23.4 48.8 23.3 48.7 23.3 48.6L22.7 43C22.7 42.9 22.8 42.8 22.9 42.8C23 42.8 23.1 42.9 23.1 43L23.7 48.6C23.7 48.7 23.6 48.8 23.5 48.8C23.5 48.8 23.5 48.8 23.5 48.8L23.5 48.8ZM39 48.5C39 48.5 39 48.5 39 48.5C38.9 48.5 38.8 48.4 38.8 48.3L39.1001 42.7C39.1001 42.6 39.2 42.5 39.3 42.5C39.4 42.5 39.5 42.6 39.5 42.7L39.2001 48.3C39.2001 48.4 39.2001 48.5 39 48.5L39 48.5Z" id="Forma" fill="#472B29" fill-rule="evenodd" stroke="none" />
      <path d="M29.1001 51.9C29.1001 52 29.1001 52.1 29.1001 52.2C29.1001 53.2 30.2001 54 31.5001 54C32.8001 54 33.9001 53.2 33.9001 52.2C33.9001 52.1 33.9001 52 33.9001 51.9L29.1001 51.9L29.1001 51.9Z" id="Forma" fill="#6D1B18" stroke="none" />
      <path d="M32.7001 53.7C32.3001 53.4 31.9001 53.3 31.4001 53.3C30.9001 53.3 30.5001 53.4 30.1001 53.7C30.5001 53.9 30.9001 54 31.4001 54C31.9001 54 32.3001 53.9 32.7001 53.7L32.7001 53.7Z" id="Forma" fill="#EE3E54" stroke="none" />
      <path d="M29.8 51.9L29.8 51.9L29.8 52.2C29.8 52.5 30.1 52.7 30.6 52.7L32.4 52.7C32.8 52.7 33.2 52.5 33.2 52.2L33.2 51.9L29.8 51.9L29.8 51.9Z" id="Forma" fill="#FDFCEF" stroke="none" />
      <path d="M31.4999 54.2C29.9999 54.2 28.8999 53.3 28.8999 52.2C28.8999 52.1 28.8999 52 28.8999 51.8C28.8999 51.7 28.9999 51.6 29.0999 51.6L33.7999 51.6C33.8999 51.6 33.9999 51.7 33.9999 51.7C33.9999 51.8 34.0999 52 34.0999 52.1C34.0999 53.3 32.8999 54.2 31.4999 54.2L31.4999 54.2ZM29.2998 52.1C29.2998 52.1 29.2998 52.2 29.2998 52.2C29.2998 53.1 30.2998 53.8 31.4998 53.8C32.6998 53.8 33.6998 53.1 33.6998 52.3C33.6998 52.3 33.6998 52.2 33.6998 52.2L29.2998 52.2L29.2998 52.1Z" id="Forma" fill="#472B29" fill-rule="evenodd" stroke="none" />
      <path d="M25.1 58.8C25 65.1 37.1 65.4 36.3 58.3L39.7 59.5L40.7 72.9C34.2 74.7 27.3 74.4 21 72L21.5 60L25.1 58.8L25.1 58.8Z" id="Forma" fill="#FDFCEF" stroke="none" />
      <path d="M31.5001 50.6C32.0001 50.6 32.5001 50.4 32.9001 50C32.9001 50 32.9001 49.9 32.9001 49.9C32.9001 49.9 32.9001 49.9 32.9001 49.9L32.9001 49.9C32.9001 49.9 32.8001 49.9 32.8001 49.9C32.8001 49.9 32.8001 49.9 32.8001 49.9C32.1001 50.6 31.0001 50.6 30.3001 49.9C30.3001 49.9 30.3001 49.9 30.2001 49.9C30.2001 49.9 30.2001 49.9 30.1001 49.9C30.1001 49.9 30.1001 50 30.1001 50C30.1001 50 30.1001 50 30.1001 50C30.4001 50.4 30.9001 50.6 31.5001 50.6L31.5001 50.6ZM32.1001 55.3C32.1001 55.2 32.1001 55.2 32.1001 55.3C32.2001 55.2 32.1001 55.2 32.1001 55.2L30.9 55.2C30.9 55.2 30.8 55.2 30.8 55.3C30.8 55.3 30.8 55.4 30.9 55.4L32.1001 55.4L32.1001 55.3Z" id="Forma" fill="#472B29" fill-opacity="0.41" fill-rule="evenodd" stroke="none" />
      <path d="M30.0999 42.3C28.3999 41.8 26.6999 41.6 24.9999 41.8C24.8999 41.8 24.8999 41.9 24.8999 41.9C24.8999 42 24.9999 42 24.9999 42C24.9999 42 28.4999 42.6 29.5999 43L29.5999 43C29.6999 43 29.6999 43 29.6999 43L30.0999 42.5C30.0999 42.4 30.0999 42.4 30.0999 42.3C30.0999 42.3 30.0999 42.3 30.0999 42.3L30.0999 42.3ZM32.7999 42.1C34.4999 41.7 36.2999 41.6 37.9999 41.8C38.0999 41.8 38.1999 41.8 38.1999 41.9C38.1999 42 38.1999 42.1 38.0999 42.1C38.0999 42.1 38.0999 42.1 37.9999 42.1C37.9999 42.1 34.4999 42.5 33.3999 42.9L33.2999 42.9C33.1999 42.9 33.1999 42.9 33.1999 42.8L32.7999 42.3C32.6999 42.3 32.6999 42.2 32.7999 42.1C32.7999 42.2 32.7999 42.1 32.7999 42.1L32.7999 42.1Z" id="Forma" fill="#512C2B" fill-rule="evenodd" stroke="none" />
      <path d="M27.6001 43.7C27.2001 43.7 26.9001 43.9 26.8001 44.3L26.9001 44.3C27.2001 44.3 27.4001 44.6 27.4001 45C27.4001 45.3 27.2001 45.5 26.9001 45.5C26.8001 45.5 26.7001 45.5 26.6001 45.4C26.7001 45.9 27.1001 46.3 27.6001 46.3C28.3001 46.1 28.7001 45.4 28.5001 44.7C28.5001 44.2 28.1001 43.8 27.6001 43.7L27.6001 43.7L27.6001 43.7ZM35.2002 43.7C34.9002 43.7 34.6002 43.9 34.4002 44.1C34.5002 44.1 34.5002 44.1 34.6002 44.1C34.9002 44.1 35.1002 44.4 35.1002 44.8C35.1002 45.1 34.9002 45.3 34.6002 45.3C34.4002 45.3 34.3002 45.2 34.2002 45C34.4002 45.5 34.9002 45.8 35.4002 45.7C35.9002 45.5 36.2002 45 36.1002 44.5C36.0002 44 35.6002 43.7 35.2002 43.7L35.2002 43.7L35.2002 43.7ZM31.6001 56.7C30.2001 56.7 28.1001 55.5 28.0001 55.5C27.9001 55.4 27.8001 55.3 27.9001 55.2C28.0001 55.1 28.1001 55 28.2001 55.1C28.2001 55.1 30.5001 56.3 31.7001 56.3C32.7001 56.1 33.7001 55.7 34.7001 55.2C34.8001 55.1 35.0001 55.2 35.0001 55.3C35.0001 55.4 35.0001 55.6 34.9001 55.6C33.9001 56.2 32.9001 56.6 31.8001 56.8C31.7001 56.7 31.7001 56.7 31.6001 56.7L31.6001 56.7Z" id="Forma" fill="#472B29" fill-rule="evenodd" stroke="none" />
      <path d="M30.5001 43.4C28.9001 41.5 23.1001 42.9 23.1001 42.9C23.2001 43.3 23.3001 43.7 23.4001 44.2C23.8001 44.2 23.9001 45.2 23.9001 45.6C24.1001 47.3 25.3001 48.6 27.7001 48.5C29.4001 48.5 30.8001 47.2 30.8001 45.5C30.8001 45.5 30.8001 45.5 30.8001 45.5C30.8001 44.7 30.7001 44 30.5001 43.4L30.5001 43.4ZM30.2002 45.5C30.2002 46.9 29.0002 48 27.6002 48C27.6002 48 27.6002 48 27.6002 48L27.1002 48C24.7002 48 24.3002 45.9 24.2002 44.5C24.2002 43.7 24.7002 43.1 25.5002 43C26.0002 43 26.5002 43 27.0002 43C28.8002 43 29.6002 43.4 29.8002 43.8C30.1002 44.3 30.2002 44.9 30.2002 45.5L30.2002 45.5ZM32.2001 45.4C32.2001 47.1 33.6001 48.4 35.3001 48.4C35.3001 48.4 35.3001 48.4 35.3001 48.4C37.7001 48.5 38.9001 47.2 39.1001 45.5C39.1001 45.1 39.2001 44.2 39.6001 44.1C39.7001 43.7 39.8001 43.3 39.9001 42.8C39.9001 42.8 34.0001 41.5 32.5001 43.3C32.2001 44 32.1001 44.7 32.2001 45.4L32.2001 45.4ZM33.0001 43.8C33.2001 43.5 34.0001 43 35.8001 43C36.3001 43 36.8001 43 37.3001 43C38.1001 43.1 38.6001 43.7 38.6001 44.5C38.6001 45.8 38.1001 48 35.7001 48L35.2001 48C33.8001 48 32.6001 46.9 32.6001 45.5C32.6001 45.5 32.6001 45.5 32.6001 45.4C32.7001 44.9 32.8001 44.3 33.0001 43.8L33.0001 43.8Z" id="Forma" fill="#00A5A5" fill-rule="evenodd" stroke="none" />
      <path d="M32.5001 44.9C32.2001 44.7 31.8001 44.6 31.4001 44.6C31.0001 44.6 30.7001 44.7 30.4001 44.9C30.3001 44.6 30.2001 44.3 30.1001 44L32.8001 44C32.7001 44.3 32.6001 44.6 32.5001 44.9L32.5001 44.9Z" id="Forma" fill="#00A5A5" stroke="none" />
      <path d="M26.5999 67.9C27.2999 67.9 27.8999 67.9 28.5999 67.9C29.0999 67.9 29.5999 67.8 30.0999 67.7C30.4999 67.6 30.8999 67.5 31.2999 67.5L31.5999 67.5C31.9999 67.5 32.3999 67.6 32.7999 67.7C33.2999 67.8 33.7999 67.9 34.2999 67.9C34.9999 67.9 35.5999 67.9 36.2999 67.9L36.4999 67.9C36.1999 67.6 35.9999 67.4 35.6999 67.1C35.1999 66.6 34.5999 66.1 33.9999 65.7C33.2999 65.2 32.3999 65.2 31.7999 65.7L31.3999 66L31.0999 65.8C30.3999 65.3 29.4999 65.3 28.8999 65.8C28.2999 66.2 27.6999 66.7 27.1999 67.2L26.3999 68L26.5999 68L26.5999 67.9Z" id="Forma" fill="#EE3E54" stroke="none" />
      <path d="M35.9999 68C35.1999 68 34.3999 68.1 33.5999 68.3C33.1999 68.4 32.8999 68.6 32.4999 68.8C31.7999 69.1 30.9999 69.1 30.2999 68.8C29.8999 68.6 29.5999 68.4 29.1999 68.3C28.3999 68.1 27.5999 67.9 26.7999 68C26.6999 68 26.4999 68 26.3999 68L26.6999 68.6C27.0999 69.5 27.7999 70.3 28.6999 70.8C29.4999 71.2 30.3999 71.5 31.2999 71.5L31.2999 71.5C32.1999 71.5 33.0999 71.3 33.8999 70.8C34.7999 70.3 35.4999 69.5 35.8999 68.6C35.9999 68.4 36.0999 68.2 36.1999 68C36.2999 68 36.1999 67.9 35.9999 68L35.9999 68Z" id="Forma" fill="#EE3E54" stroke="none" />
      <path d="M32.3002 74.9C27.0002 74.9 21.7002 73.3 17.2002 70.2C17.1002 70.1 17.0002 70 17.0002 69.8L17.0002 69.6C16.8002 64.5 17.8002 61.4 19.8002 60.3C20.3002 60 20.8002 59.8 21.4002 59.6L26.7002 57.8C27.0002 57.7 27.2002 57.6 27.3002 57.3C27.3002 57.1 27.4002 56.1 27.5002 55.5C26.0002 54.6 24.7002 53.5 23.5002 52.3C23.0002 51.7 22.7002 50.9 22.7002 50.1L22.7002 48.8C22.2002 48.6 21.8002 48.2 21.7002 47.6C21.4002 46.8 21.0002 45 21.0002 44.9C20.7002 44.1 20.9002 43.6 21.1002 43.3C21.3002 43.1 21.6002 42.8 22.2002 42.7C22.2002 42.7 22.2002 42.6 22.2002 42.6C22.0002 42.2 21.9002 41.8 21.9002 41.4C21.9002 36.8 26.0002 33 31.0002 33C36.0002 33 40.1002 36.7 40.1002 41.3C40.1002 41.8 40.0002 42.2 39.8002 42.6L39.8002 42.7C40.4002 42.8 40.8002 43 41.1002 43.4C41.3002 43.7 41.5002 44.2 41.3002 45C41.2002 45.5 40.8002 47.1 40.6002 47.7C40.5002 48.2 40.2002 48.6 39.7002 48.7L39.7002 50.3C39.7002 50.8 39.5002 51.3 39.3002 51.7C38.1002 53.4 36.6002 54.8 34.9002 55.9C34.9002 56.4 34.9002 56.9 35.1002 57.4C35.2002 57.6 35.4002 57.7 35.6002 57.8C35.9002 57.9 41.2002 59.7 42.1002 60.1L42.5002 60.3C42.6002 60.3 42.6002 60.3 42.6002 60.3C42.6002 60.3 42.6002 60.3 42.7002 60.3C45.5002 61.2 45.6002 64.8 45.7002 69.8L45.7002 70.9C45.7002 71.1 45.6002 71.3 45.4002 71.3C41.3002 73.7 36.8002 74.9 32.3002 74.9L32.3002 74.9ZM18.0003 69.5C25.9003 74.9 36.3003 75.3 44.6003 70.7L44.6003 69.9C44.5003 65.2 44.5003 62 42.4003 61.3C42.3003 61.3 42.2003 61.2 42.1003 61.2L41.7002 61C40.9003 60.7 35.4003 58.8 35.3002 58.8C34.8002 58.7 34.4002 58.3 34.1003 57.8C33.9002 57.1 33.8002 56.4 33.9002 55.7C33.9002 55.5 34.0002 55.4 34.1003 55.3C35.8002 54.2 37.2002 52.9 38.4002 51.3C38.5002 51.1 38.6003 50.7 38.6003 50.4L38.6003 48.4C38.6003 48.1 38.8002 47.9 39.0003 47.9C39.2002 47.9 39.4003 47.7 39.4003 47.5C39.7002 46.6 40.1003 44.9 40.1003 44.8C40.2002 44.4 40.2002 44.2 40.1003 44C39.9003 43.8 39.6003 43.7 39.1003 43.7C39.0003 43.7 38.8003 43.7 38.7003 43.6C38.6003 43.5 38.6003 43.4 38.6003 43.2L38.6003 42.5C38.6003 42.4 38.6003 42.3 38.7003 42.3C38.8002 42 38.9003 41.7 38.9003 41.3C38.9003 37.3 35.3003 34 30.8003 34C26.3002 34 22.7003 37.3 22.7003 41.3C22.7003 41.6 22.8003 41.9 23.0003 42.2C23.0003 42.2 23.0003 42.3 23.0003 42.3C23.0003 42.6 23.1003 42.9 23.1003 43.1C23.1003 43.4 22.9002 43.6 22.6003 43.6C22.2003 43.6 21.9002 43.7 21.8003 43.8C21.7003 44 21.7003 44.2 21.8003 44.6C21.8003 44.7 22.2003 46.5 22.5003 47.3C22.6003 47.6 22.7003 47.8 23.0003 47.8C23.1003 47.8 23.3003 47.9 23.4003 47.9C23.5003 48 23.5003 48.1 23.5003 48.3L23.5003 50C23.5003 50.6 23.7003 51.1 24.0003 51.6C25.1003 52.8 26.5003 53.9 28.0003 54.8C28.2003 54.9 28.3003 55.1 28.3003 55.2C28.3003 55.7 28.2003 57.2 28.1003 57.6C27.9003 58.2 27.4003 58.7 26.8003 58.8L21.5003 60.6C21.0003 60.8 20.5003 60.9 20.1003 61.2C19.2003 61.8 17.8003 63.7 18.0003 69.5L18.0003 69.5Z" id="Forma" fill="#472B29" fill-rule="evenodd" stroke="none" />
      <path d="M40.0999 37.3C39.7999 36 38.2999 33.5 36.6999 33.7C36.3999 32.7 35.7999 31.9 34.9999 31.3C33.6999 30.5 32.1999 30.2 30.6999 30.4C28.2999 30.7 25.3999 31.6 23.7999 33.5C22.1999 35.4 20.6999 38.2 20.7999 40.8C21.1999 40.3 21.5999 39.8 21.9999 39.4C21.8999 41.7 22.3999 44.1 23.5999 46.1C23.5999 44.6 23.7999 43 24.1999 41.6C24.1999 42.3 24.2999 43 24.4999 43.7C24.3999 43.5 27.6999 38.6 31.2999 37.4C31.0999 37.8 30.8999 38.2 30.6999 38.6C30.3999 39.6 30.0999 40.5 29.6999 41.4C31.4999 40.6 33.0999 39.4 34.2999 37.8C34.4999 37.5 34.6999 37.1 34.7999 36.7L35.0999 36.7C35.0999 36.8 35.1999 36.9 35.1999 37C35.4999 37.6 35.8999 38.2 36.3999 38.8C37.8999 41 39.2999 43.6 39.0999 46.2C40.7999 43.5 40.7999 40.3 40.0999 37.3L40.0999 37.3Z" id="Forma" fill="#512C2B" stroke="none" />
      <path d="M88.8001 62.5C88.7001 61.1 87.7001 59.9 86.4001 59.6L86.1001 59.5L85.7001 59.3C84.8001 58.9 79.4001 56.9 79.4001 56.9C79.0001 56.8 78.7001 56.5 78.5001 56.1C78.3001 55.4 78.3001 54.7 78.3001 53.9C77.1001 54.3 75.9001 54.6 74.6001 54.9C73.2001 55 70.2001 53.2 70.2001 53.2C70.2001 53.2 70.1001 55.4 70.0001 55.9C69.9001 56.3 69.5001 56.6 69.1001 56.7L63.9001 58.6C63.3001 58.7 62.8001 59 62.3001 59.3C61.2001 60 60.4001 61.1 60.0001 62.3C60.0001 62.3 59.7001 64.7 59.7001 64.8C59.7001 65.1 59.6001 65.5 59.6001 65.9C65.3001 69.7 69.8001 70.8 77.6001 70.5C81.6001 70.1 85.5001 69 89.2001 67.2C89.0001 64.3 88.8001 62.5 88.8001 62.5L88.8001 62.5Z" id="Forma" fill="#CE9065" stroke="none" />
      <path d="M86.3 59.6L86 59.5L85.6 59.3C85 59.1 82.7999 58.2 81.1 57.6L81 57.6C79.2 58.5 76.6 59.9 74.2 59.9C71.7999 59.9 69.3999 58.6 67.3999 57.6L67.2 57.7L63.9999 58.9C63.4 59 62.9 59.3 62.4 59.6C61.2999 60.3 60.4999 61.4 60.1 62.6C60.1 62.6 59.7999 65 59.7999 65.1C59.7999 65.4 59.7 69.1 59.7 69.5C65.3999 73.3 69.8999 74.4 77.7 74.1C81.7 73.7 85.6 72.6 89.2999 70.8C89.1 67.7 88.8999 62.7 88.8999 62.7C88.7 61.1 87.7 60 86.3 59.6L86.3 59.6Z" id="Forma" fill="#FDFCEF" stroke="none" />
      <path d="M60.3999 61.4C61.1999 60.3 62.2999 59.5 63.4999 59L64.4999 58.6L64.4999 58.6L68.6999 57C69.7999 59.8 72.3999 71.4 73.6999 74.2C71.3999 74.3 69.0999 74 66.7999 73.4C64.1999 72.4 61.6999 71.1 59.3999 69.6C59.5999 69 59.3999 63.7 60.3999 61.4L60.3999 61.4ZM88.2999 61.4C88.0999 60.6 87.3999 60.1 86.6999 59.9L85.6999 59.5L85.6999 59.5L79.8999 57.3C78.7999 60.7 76.1999 70.3 74.8999 74.4C77.6999 74.5 80.3999 74.2 83.0999 73.4C87.6999 72.1 89.3999 71 89.3999 71C89.1999 70.3 89.0999 64 88.2999 61.4L88.2999 61.4Z" id="Forma" fill="#83CCB7" fill-rule="evenodd" stroke="none" />
      <path d="M64.6999 72.6C64.4999 72.6 64.3999 72.4 64.3999 72.3L64.3999 69.5C64.3999 69.3 64.5999 69.2 64.6999 69.2C64.7999 69.2 64.9999 69.4 64.9999 69.5L64.9999 72.3C64.9999 72.5 64.8999 72.6 64.6999 72.6L64.6999 72.6ZM83.6999 73.1C83.4999 73.1 83.3999 72.9 83.3999 72.8L83.3999 69.5C83.3999 69.3 83.5999 69.2 83.6999 69.2C83.7999 69.2 83.9999 69.4 83.9999 69.5L83.9999 72.8C84.0999 73 83.8999 73.1 83.6999 73.1L83.6999 73.1Z" id="Forma" fill="#6FBCA4" fill-rule="evenodd" stroke="none" />
      <path d="M67.7217 57.0274L69.6453 56.4799L74.655 74.0808L72.7314 74.6283L67.7217 57.0274Z" id="Forma" fill="#00A5A5" stroke="none" />
      <path d="M73.9033 74.1579L78.852 56.7475L80.7757 57.2943L75.8271 74.7047L73.9033 74.1579Z" id="Forma" fill="#00A5A5" stroke="none" />
      <path d="M83.2001 43.2L82.9 43.2C82.2001 43.2 82.2001 43.4 82.2001 42.9C82.3 42.1 82 39.1 82 38.9C82 35.6 78.6001 33 74.4 32.9L74.2001 32.9C70.0001 33.1 66.6001 35.7 66.6001 38.9C66.6001 39.1 66.5001 42.2 66.5001 43C66.5001 43.4 66.3001 43.2 65.6001 43.2L65.3 43.2C64.6001 43.2 64 43.7 63.8 44.4C64 45.7 64.4 46.9 64.8 48.2C65.1001 48.8 65.6001 48.9 66.1001 49.2C66.3 49.4 66.5001 49.7 66.5001 50C66.9001 51.2 67.6001 52.2 68.5001 53C68.9001 53.4 71.8001 56.5 74.2001 56.3C76.6001 56.1 79.5001 53.4 79.9 53C80.8 52.2 81.5 51.2 81.9001 50C81.9001 49.7 82.1001 49.4 82.3 49.2C82.8 48.8 83.3 48.7 83.6001 48.2C84.0001 47 84.4001 45.7 84.6001 44.4C84.5 43.6 83.9001 43.2 83.2001 43.2L83.2001 43.2Z" id="Forma" fill="#DB9E71" stroke="none" />
      <path d="M74.2997 48.3C74.7997 48.3 75.2997 48.1 75.5997 47.7C75.5997 47.7 75.5997 47.6 75.5997 47.6C75.5997 47.6 75.5997 47.6 75.5997 47.6L75.5997 47.6C75.5997 47.6 75.4997 47.6 75.4997 47.6C75.1998 47.9 74.7998 48.1 74.2998 48.1C73.8998 48.1 73.3998 48 73.0998 47.6C73.0998 47.6 73.0998 47.6 72.9998 47.6L72.9998 47.6C72.9998 47.6 72.9998 47.7 72.9998 47.7C72.9998 47.7 72.9998 47.7 72.9998 47.7C73.3997 48.1 73.7997 48.3 74.2997 48.3L74.2997 48.3ZM72.6999 41.6L72.9999 41C71.5999 40.7 70.1999 40.7 68.8999 41.1L69.2999 41.7C70.3999 41.4 71.5999 41.3 72.6999 41.6L72.6999 41.6ZM79.3998 41.6L79.6999 41C78.2999 40.7 76.8998 40.7 75.5999 41.1L75.9999 41.7C77.0998 41.4 78.2999 41.3 79.3998 41.6L79.3998 41.6ZM70.7999 42.5C70.4999 42.5 70.0999 42.7 69.9999 43L70.0999 43C70.3999 43 70.5999 43.3 70.5999 43.5C70.5999 43.5 70.5999 43.5 70.5999 43.5C70.5999 43.8 70.3999 44 70.0999 44C70.0999 44 70.0999 44 70.0999 44C69.9999 44 69.8999 44 69.8999 43.9C69.9999 44.3 70.2999 44.7 70.7999 44.7C71.3999 44.5 71.7999 43.9 71.6999 43.2C71.4999 42.9 71.1999 42.6 70.7999 42.5L70.7999 42.5L70.7999 42.5ZM77.7997 42.5C77.4997 42.5 77.2997 42.7 77.0997 42.9C77.1997 42.9 77.1997 42.9 77.2997 42.9C77.5997 42.9 77.7997 43.2 77.7997 43.5C77.7997 43.7 77.5997 43.9 77.2997 44C77.0997 44 76.9997 43.9 76.8997 43.8C76.7997 44.3 77.1997 44.9 77.6997 44.9C77.6997 44.9 77.6997 44.9 77.7997 44.9C78.3997 44.7 78.7997 44.1 78.6997 43.4C78.4997 42.9 78.1997 42.6 77.7997 42.5L77.7997 42.5L77.7997 42.5ZM78.1999 49.7C78.1999 49.7 78.1999 49.6 78.1999 49.6L78.1999 49.6C78.1999 49.6 78.0999 49.6 78.0999 49.6C78.0999 49.6 78.0999 49.6 78.0999 49.6C75.7999 51 72.8999 51 70.5999 49.6C70.5999 49.6 70.5999 49.6 70.4999 49.6C70.4999 49.6 70.4999 49.6 70.3999 49.6C70.3999 49.6 70.3999 49.7 70.3999 49.7C70.3999 49.7 70.3999 49.7 70.3999 49.7C72.6999 51.3 75.7999 51.3 78.1999 49.7L78.1999 49.7L78.1999 49.7ZM67.0998 40.6C67.3998 39 67.9998 37.5 68.7998 36.1C68.4998 35.8 68.0998 35.6 67.6998 35.7C66.6998 37.6 66.0998 39.7 66.1998 41.9C66.1998 42.9 66.3998 43.9 66.6998 44.8C66.8998 43.4 66.7998 42 67.0998 40.6L67.0998 40.6ZM81.4998 40.6C81.1998 39 80.5998 37.5 79.7998 36.1C80.0998 35.8 80.4998 35.6 80.8998 35.7C81.8998 37.6 82.4998 39.7 82.3998 41.9C82.3998 42.9 82.1998 43.9 81.8998 44.8C81.6998 43.4 81.7998 42 81.4998 40.6L81.4998 40.6ZM75.2998 53.5C75.2998 53.5 75.3998 53.4 75.3998 53.4C75.3998 53.4 75.3998 53.3 75.2998 53.3L73.3998 53.3C73.3998 53.3 73.2998 53.3 73.2998 53.4C73.2998 53.5 73.2998 53.5 73.3998 53.5L75.2998 53.5L75.2998 53.5Z" id="Forma" fill="#512C2B" fill-rule="evenodd" stroke="none" />
      <path d="M75.1001 74.6C68.6001 74.6 64.4001 73.3 59.3001 69.9C59.2001 69.8 59.1001 69.6 59.1001 69.4C59.1001 69.3 59.1001 69.1 59.1001 68.7C59.1001 67.1 59.2001 63.7 59.5001 62.4C59.8001 61 60.7001 59.8 62.1001 59.1C62.6001 58.8 63.2001 58.6 63.8001 58.4L69.0001 56.5C69.3001 56.4 69.6001 56.2 69.6001 56C69.6001 55.9 69.7001 55.3 69.7001 54.7C69.2001 54.3 68.7001 54 68.2001 53.6C67.2001 52.7 66.5001 51.6 66.0001 50.4C66.0001 50.4 66.0001 50.3 66.0001 50.3C66.0001 50.1 65.9001 50 65.8001 49.9C65.7001 49.8 65.5001 49.7 65.4001 49.6C65.0001 49.4 64.6001 49.2 64.4001 48.6C63.8001 47.3 63.5001 46 63.3001 44.6C63.3001 44.5 63.3001 44.5 63.3001 44.4C63.6001 43.5 64.4001 42.9 65.3001 42.9L65.6001 42.9C65.7001 42.9 65.9001 42.9 66.0001 42.9C66.0001 42.1 66.0001 40.8 66.1001 39.5C66.1001 39.3 66.1001 39.1 66.1001 39.1C66.1001 35.5 69.7001 32.6 74.2001 32.5L74.4001 32.5C79.0001 32.6 82.5001 35.5 82.5001 39.1C82.5001 39.1 82.5001 39.3 82.5001 39.6C82.6001 40.9 82.7001 42.2 82.7001 42.9C82.8001 42.9 82.8001 42.9 82.9001 42.9L83.2001 42.9C84.1001 42.9 84.9001 43.5 85.2001 44.4C85.2001 44.5 85.2001 44.5 85.2001 44.6C85.1001 46 84.7001 47.3 84.2001 48.6C83.9001 49.2 83.5001 49.4 83.1001 49.6C83.0001 49.7 82.8001 49.8 82.7001 49.9C82.6001 50 82.5001 50.2 82.5001 50.3C82.5001 50.3 82.5001 50.4 82.5001 50.4C82.1001 51.7 81.4001 52.8 80.3001 53.6C79.8001 54 79.3001 54.5 78.7001 54.8C78.7001 55.2 78.8001 55.7 78.9001 56.1C79.0001 56.3 79.2001 56.5 79.5001 56.5C79.8001 56.6 85.0001 58.5 85.9001 58.9L86.6001 59.1C88.1001 59.5 89.3001 60.9 89.4001 62.5C89.4001 62.5 89.4001 62.5 89.4001 62.5C89.4001 62.5 89.6001 67.5 89.8001 70.6C89.8001 70.8 89.7001 71 89.5001 71.1C85.8001 72.9 81.8001 74 77.7001 74.4C76.7001 74.6 75.9001 74.6 75.1001 74.6L75.1001 74.6ZM60.1 69.3C65.4 72.9 69.9 74 77.6 73.6C81.4 73.2 85.2 72.2 88.7 70.5C88.5 67.4 88.3 62.9 88.3 62.7C88.2 61.5 87.4 60.5 86.2 60.2L85.5 59.9C84.6 59.5 79.2 57.5 79.2 57.5C78.7 57.4 78.2 57 78 56.5C77.8 55.8 77.7 55.2 77.8 54.6C77.8 54.4 77.9 54.3 78 54.2C78.6 53.8 79.2 53.3 79.7 52.9C80.6 52.2 81.2 51.2 81.5 50.2C81.6 49.8 81.8 49.4 82.1 49.1C82.3 49 82.5 48.9 82.6 48.8C82.9 48.6 83.1 48.5 83.2 48.2C83.7 47.1 84 45.9 84.1 44.7C83.9 44.3 83.5 44 83.1 44L82.8 44C82.6 44 82.5 44 82.4 44C82.2 44 81.9 44 81.7 43.8C81.5 43.6 81.5 43.3 81.5 43.1C81.5 42.5 81.4 40.6 81.3 39.7C81.3 39.4 81.3 39.2 81.3 39.1C81.3 36.1 78.1 33.6 74.2 33.5L74 33.5C70 33.6 66.9 36.1 66.9 39.1C66.9 39.1 66.9 39.3 66.9 39.5C66.9 40.3 66.8 42.5 66.9 43.1C66.9 43.3 66.9 43.5 66.7 43.7C66.6 44 66.3 44 66.2 44C66.1 44 65.9 44 65.7 44L65.4 44C64.9 44 64.5 44.3 64.4 44.7C64.5 45.9 64.8 47.1 65.3 48.2C65.4 48.5 65.6 48.6 65.9 48.7C66.1 48.8 66.3 48.9 66.4 49C66.7 49.3 67 49.7 67 50.1C67.4 51.2 68 52.1 68.8 52.8C69.3 53.2 69.9 53.6 70.4 54C70.5 54.1 70.6 54.2 70.6 54.4C70.6 55.1 70.5 55.9 70.5 56.2C70.3 56.9 69.8 57.3 69.2 57.4L64 59.3C63.4 59.4 62.9 59.6 62.5 59.9C61.4 60.4 60.7 61.4 60.4 62.6C60.1 63.8 60 67.2 60 68.7C60.1 69 60.1 69.1 60.1 69.3L60.1 69.3Z" id="Forma" fill="#472B29" fill-rule="evenodd" stroke="none" />
      <path d="M83.2998 46.7L82.6998 46.6L82.7998 45.4L82.1998 45.7L81.9998 45.2L83.0998 44.7C83.1998 44.7 83.2998 44.7 83.3998 44.7C83.4998 44.8 83.4998 44.9 83.4998 45L83.2998 46.7L83.2998 46.7ZM65.4998 46.5L65.2998 44.8C65.2998 44.7 65.2998 44.6 65.3998 44.5C65.4998 44.4 65.5998 44.4 65.6998 44.5L66.7998 45L66.5998 45.5L65.9998 45.2L66.0998 46.4L65.4998 46.5L65.4998 46.5Z" id="Forma" fill="#895D3D" fill-rule="evenodd" stroke="none" />
      <path d="M66.5 49.8C66.5 49.8 66.5 49.8 66.5 49.8C66.4 49.8 66.3 49.7 66.3 49.6L66.4 43.3C66.4 43.2 66.5 43.1 66.6001 43.1C66.7001 43.1 66.8 43.2 66.8 43.3L66.7001 49.6C66.7001 49.7 66.6001 49.8 66.5 49.8L66.5 49.8ZM82.1001 49.8C82 49.8 81.9 49.7 81.9 49.6L81.8 43.3C81.8 43.2 81.9 43.1 82 43.1C82 43.1 82 43.1 82 43.1C82.1001 43.1 82.2001 43.2 82.2001 43.3L82.3 49.6C82.3 49.7 82.2001 49.8 82.1001 49.8C82.1001 49.8 82.1001 49.8 82.1001 49.8L82.1001 49.8Z" id="Forma" fill="#472B29" fill-rule="evenodd" stroke="none" />
      <path d="M81.9001 43.4C81.9001 43.5 82.0001 43.6 82.0001 43.7L82.1001 43.6C82.2001 43.5 82.3001 43.4 82.4001 43.3C82.5001 42.5 82.6001 41.7 82.6001 41.2C82.9001 38 81.9001 36.1 81.2001 35.2C79.2001 33.7 76.7001 33 74.3001 33C72.2001 33 70.1001 33.5 68.3001 34.6C66.9001 35.9 66.0001 37 66.1001 41.2C66.1001 41.6 66.2001 42.4 66.3001 43.1C66.3001 43.2 66.4001 43.2 66.4001 43.3C66.4001 43.3 66.5001 43.4 66.5001 43.4C66.7001 43.5 66.8001 43.2 66.8001 43.1L66.9001 42.9C66.9001 41.9 67.0001 41 67.2001 40C67.4001 39.1 67.7001 38.2 68.1001 37.3C70.1001 35.3 78.4001 35.4 80.5001 37.3C80.9001 38.2 81.2001 39 81.4001 39.9C81.6001 40.8 81.8001 43.4 81.9001 43.4L81.9001 43.4Z" id="Forma" fill="#DD851D" stroke="none" />
      <path d="M82 43.9C81.9 43.9 81.9 43.9 82 43.9C81.8 43.9 81.8 43.8 81.8 43.7C81.8 43.6 81.8 43.6 81.7 43.5C81.7 43.5 81.7 43.5 81.7 43.5C81.7 43.4 81.7 43.4 81.6 42.7C81.5 41.9 81.4 40.5 81.2 40C81 39.1 80.7 38.3 80.3 37.4C78.2 35.6 70.2 35.6 68.3 37.4C67.9 38.2 67.6 39.1 67.4 40C67.2 40.9 67.1 41.9 67.1 42.8C67.1 42.8 67.1 42.9 67.1 42.9L67 43.3C66.9 43.4 66.7 43.7 66.4 43.6C66.3 43.6 66.2 43.5 66.2 43.4C66.2 43.4 66.1 43.3 66.1 43.3C66.1 43.3 66 43.2 66 43.1C65.9 42.3 65.8 41.6 65.8 41.1C65.7 36.9 66.6 35.7 68.1 34.3C70 33.2 72.1 32.6 74.3 32.7C76.8 32.7 79.3 33.4 81.4 34.9C81.4 34.9 81.4 34.9 81.4 34.9C82.3 36 83.2 37.9 82.9 41.1C82.9 41.6 82.8 42.4 82.7 43.2C82.7 43.2 82.7 43.3 82.7 43.3C82.6 43.4 82.5 43.6 82.4 43.7L82.2 43.8C82.1 43.9 82 43.9 82 43.9L82 43.9ZM74.2 35.7C76.8 35.7 79.5 36.2 80.7 37.2C80.7 37.2 80.7 37.3 80.8 37.3C81.2 38.2 81.5 39.1 81.7 40C81.8 40.5 82 41.9 82.1 42.7C82.1 42.9 82.1 43.1 82.2 43.2C82.2 43.2 82.2 43.2 82.2 43.1C82.3 42.3 82.4 41.5 82.4 41.1C82.7 38.7 82.2 36.7 81 35.3C79 33.9 76.6 33.1 74.2 33.2C72.1 33.2 70.1 33.7 68.3 34.7C67 36 66.1 37 66.2 41.1C66.2 41.5 66.3 42.2 66.4 42.9C66.4 42.9 66.4 42.9 66.4 42.9C66.4 42.9 66.4 42.9 66.4 42.9L66.5 42.7C66.5 41.7 66.6 40.8 66.8 39.8C67 38.9 67.3 37.9 67.7 37.1C67.7 37.1 67.7 37 67.7 37C68.9 36.2 71.6 35.7 74.2 35.7L74.2 35.7Z" id="Forma" fill="#DD851D" fill-rule="evenodd" stroke="none" />
      <path d="M67.4 35.2C67.3 35.9 67.6 36.5 68.1 37C68.5 37.3 68.9 37.5 69.4 37.6C70 37.7 70.6 37.6 71.1 37.3C71.9 38.9 73.7 39.7 75.5 39.3C76.2 39.2 76.9 38.9 77.5 38.5C78 39.3 79 39.7 79.9 39.5C80.1 39.5 80.3 39.4 80.6 39.3C81 39.7 81.6 39.9 82.1 39.8C82.5 39.7 82.8 39.6 83.1 39.3C83.9 39.1 84.6 38.3 84.6 36.6C84.4 37 84 37.3 83.6 37.4C83.6 37.2 83.5 37.1 83.4 36.9C83.7 36.5 83.8 36 83.7 35.6C83.5 34.6 82.7 34 81.7 34.1L81.7 34.1C81.7 33.9 81.7 33.6 81.7 33.4C81.5 32.2 80.3 31.3 79.1 31.5C79.1 31.5 79.1 31.5 79.1 31.5C78.9 31.5 78.7 31.6 78.5 31.7L78.5 31.6C78.2 30.1 76.8 29.1 75.3 29.4C74.5 29.5 73.7 30 73.3 30.8C72.6 30.5 71.9 30.4 71.1 30.5C69.4 30.6 68.1 32.1 68.2 33.8" id="Forma" fill="#EF9922" stroke="none" />
      <path d="M83.6999 37.3C83.6999 37.1 83.5999 37 83.4999 36.8C83.7999 36.4 83.8999 35.9 83.7999 35.5C83.6 34.5 82.7999 33.9 81.7999 34L81.7999 34C81.7999 33.8 81.7999 33.5 81.7999 33.3C81.6 32.1 80.4999 31.2 79.2999 31.4C79.1 31.4 78.8999 31.5 78.7 31.6C78.7 31.6 78.7 31.5 78.7 31.5C78.3999 30.1 77.1 29.1 75.7 29.3C77 29.9 77.7999 31.3 77.7 32.7C77.7 32.7 77.7 32.8 77.7 32.8C78 32.7 78.2 32.7 78.5 32.8C80.1 33 81.3 34.4 81.2 36C81.2 36.3 81.1 36.6 81 36.9L81 36.9C82.2 37 83.1 38 83.1 39.2L83.2 39.1C84 38.9 84.7 38.2 84.7 36.4C84.3999 36.9 84.0999 37.2 83.6999 37.3L83.6999 37.3Z" id="Forma" fill="#DD851D" fill-opacity="0.54" stroke="none" />
      <path d="M81.8 39.9C81.3 39.9 80.9 39.7 80.5 39.4C80.3 39.5 80.1 39.5 79.9 39.6C79 39.7 78 39.4 77.5 38.7C76.9 39.1 76.3 39.3 75.6 39.5C73.9 39.9 72 39.1 71.1 37.6C70.6 37.8 70 37.9 69.4 37.8C68.1 37.7 67.1 36.6 67.2 35.3C67.2 35.2 67.3 35.1 67.4 35.1C67.4 35.1 67.4 35.1 67.4 35.1C67.5 35.1 67.6 35.2 67.6 35.3C67.5 36.4 68.4 37.3 69.5 37.4C70.1 37.5 70.6 37.4 71.1 37.2C71.2 37.1 71.3 37.2 71.4 37.3C72.2 38.8 73.9 39.6 75.5 39.2C76.2 39.1 76.9 38.8 77.4 38.4C77.4 38.4 77.5 38.4 77.6 38.4C77.7 38.4 77.7 38.4 77.7 38.5C78.2 39.2 79 39.6 79.9 39.4C80.1 39.4 80.3 39.3 80.5 39.2C80.6 39.2 80.7 39.2 80.7 39.2C81.1 39.5 81.6 39.7 82.1 39.6C82.4 39.6 82.7 39.4 83 39.2C83 39.2 83.1 39.2 83.1 39.2C83.6 39.1 84.5 38.6 84.5 36.7C84.5 36.6 84.6 36.5 84.7 36.5L84.7 36.5C84.8 36.5 84.9 36.6 84.9 36.7C84.9 38.8 83.8 39.4 83.3 39.5C83 39.8 82.6 39.9 82.2 40C82.1 39.9 82 39.9 81.8 39.9L81.8 39.9Z" id="Forma" fill="#472B29" stroke="none" />
      <path d="M82.8002 43.9C82.7002 43.9 82.7002 43.9 82.8002 43.9C82.5002 43.9 82.3002 43.6 82.3002 43.3C82.4002 42.5 82.5002 41.6 82.5002 41.1C82.5002 40.5 82.5002 40 82.5002 39.4C82.5002 39.2 82.6002 39 82.8002 38.9C82.9002 38.9 83.0002 38.8 83.1002 38.7C83.2002 38.7 83.2002 38.6 83.3002 38.6C83.8002 38.5 84.1002 38.1 84.3002 37.6C84.3002 37.6 84.2002 37.6 84.2002 37.7C84.1002 37.7 83.9002 37.7 83.8002 37.7C83.7002 37.6 83.6002 37.5 83.6002 37.4C83.6002 37.3 83.5002 37.2 83.5002 37.1C83.4002 36.9 83.4002 36.7 83.5002 36.5C83.7002 36.2 83.8002 35.9 83.7002 35.5C83.6002 34.8 82.9002 34.3 82.2002 34.4C82.0002 34.4 81.9002 34.4 81.8002 34.3C81.7002 34.2 81.6002 34 81.7002 33.9C81.7002 33.7 81.7002 33.5 81.7002 33.4C81.5002 32.4 80.6002 31.8 79.6002 31.9C79.4002 31.9 79.3002 32 79.1002 32C79.0002 32.1 78.8002 32.1 78.7002 32C78.6002 31.9 78.5002 31.8 78.4002 31.6C78.4002 31.6 78.4002 31.5 78.4002 31.5C78.1002 30.3 76.9002 29.5 75.6002 29.7C74.9002 29.8 74.2002 30.2 73.8002 30.8C73.7002 31 73.4002 31.1 73.2002 31C72.6002 30.7 71.9002 30.7 71.2002 30.8C70.3002 30.9 69.5002 31.4 69.0002 32.1C68.7002 32.6 68.5002 33.1 68.6002 33.6C68.6002 33.7 68.6002 33.8 68.5002 33.9L67.9002 35.1C67.9002 35.1 67.8002 35.2 67.8002 35.2C66.7002 36.3 66.0002 37.6 66.1002 41.1C66.1002 41.5 66.2002 42.1 66.3002 42.8L66.3002 43.1C66.3002 43.4 66.2002 43.6 65.9002 43.7C65.6002 43.7 65.4002 43.6 65.3002 43.3L65.3002 43C65.2002 42.3 65.1002 41.6 65.1002 41.2C65.0002 37.5 65.8002 36 67.0002 34.7L67.5002 33.7C67.4002 33 67.6002 32.3 68.1002 31.6C68.7002 30.7 69.8002 30.1 71.0002 29.9C71.7002 29.8 72.4002 29.8 73.1002 30.1C73.7002 29.4 74.4002 29 75.3002 28.8C76.9002 28.5 78.5002 29.4 79.1002 31C79.2002 31 79.2002 31 79.3002 31C80.8002 30.7 82.3002 31.8 82.5002 33.3C82.5002 33.4 82.5002 33.5 82.5002 33.6C83.5002 33.7 84.3002 34.5 84.5002 35.5C84.5002 35.8 84.5002 36 84.5002 36.3C84.6002 36.2 84.8002 36.1 85.0002 36.1C85.2002 36.2 85.4002 36.4 85.4002 36.6C85.4002 38.8 84.2002 39.5 83.6002 39.7C83.6002 39.7 83.5002 39.7 83.5002 39.8C83.5002 40.3 83.5002 40.8 83.5002 41.3C83.5002 41.8 83.4002 42.7 83.3002 43.6C83.2002 43.7 83.0002 43.9 82.8002 43.9L82.8002 43.9ZM74.3002 56.4C72.8002 56.4 70.4002 54.8 70.3002 54.7C70.2002 54.6 70.2002 54.5 70.2002 54.4C70.3002 54.3 70.4002 54.3 70.5002 54.3C71.2002 54.8 73.3002 56 74.3002 55.9C75.5002 55.6 76.6002 55.1 77.6002 54.4C77.7002 54.3 77.9002 54.3 77.9002 54.5C78.0002 54.6 78.0002 54.8 77.8002 54.8C76.7002 55.6 75.6002 56.1 74.3002 56.4C74.4002 56.4 74.3002 56.4 74.3002 56.4L74.3002 56.4Z" id="Forma" fill="#472B29" fill-rule="evenodd" stroke="none" />
      <path d="M48.1001 30.1L48.1001 37C48.1001 37.8 48.8001 38.4 49.6001 38.4L55.0001 38.4C55.8001 38.4 56.5001 37.8 56.5001 37L56.5001 30.1L48.1001 30.1L48.1001 30.1Z" id="Forma" fill="#F1BC19" stroke="none" />
      <path d="M49.6 38.7C48.7 38.7 47.9 38 47.8 37L47.8 30.1C47.8 30 47.8 29.9 47.9 29.9C48 29.8 48 29.8 48.1 29.8C48.1 29.8 48.1 29.8 48.1 29.8L56.6001 29.8C56.8 29.8 56.9001 29.9 56.9001 30.1L56.9001 37C56.8 38 56 38.7 55.1001 38.7L49.6 38.7C49.6 38.7 49.6 38.7 49.6 38.7L49.6 38.7ZM48.5 30.4L48.5 37C48.5 37.6 49.1 38.1 49.7 38L55.2 38C55.8 38 56.4 37.6 56.4 36.9L56.4 30.3L48.5 30.4L48.5 30.4Z" id="Forma" fill="#472B29" fill-rule="evenodd" stroke="none" />
      <path d="M48.3999 36.4L48.3999 36.9C48.4999 37.6 49.0999 38.2 49.7999 38.1C49.7999 38.1 49.7999 38.1 49.7999 38.1L54.8999 38.1C55.5999 38.2 56.1999 37.6 56.2999 36.9C56.2999 36.9 56.2999 36.9 56.2999 36.9L56.2999 36.4L48.3999 36.4L48.3999 36.4Z" id="Forma" fill="#CE942B" stroke="none" />
      <path d="M48.3999 30.3L56.3999 30.3L56.3999 30.9L48.3999 30.9L48.3999 30.3Z" id="Forma" fill="#FBCD59" stroke="none" />
      <path d="M50.6001 31.7C50.324 31.7 50.1001 31.9239 50.1001 32.2C50.1001 32.4762 50.324 32.7 50.6001 32.7C50.8762 32.7 51.1001 32.4762 51.1001 32.2C51.1001 31.9239 50.8762 31.7 50.6001 31.7L50.6001 31.7Z" id="Forma" fill="#CE942B" stroke="none" />
      <path d="M50.6 32.9C50.3 32.9 50 32.6 50 32.3C50 32 50.3 31.7 50.6 31.7C50.9 31.7 51.2 32 51.2 32.3C51.2 32.6 51 32.9 50.6 32.9L50.6 32.9ZM50.6 31.9C50.4 31.9 50.3 32 50.3 32.2C50.3 32.4 50.4 32.5 50.6 32.5C50.8 32.5 50.9 32.4 50.9 32.2C50.9 32 50.8 31.9 50.6 31.9L50.6 31.9Z" id="Forma" fill="#472B29" fill-rule="evenodd" stroke="none" />
      <path d="M54.3 31.7C54.0239 31.7 53.8 31.9239 53.8 32.2C53.8 32.4762 54.0239 32.7 54.3 32.7C54.5762 32.7 54.8 32.4762 54.8 32.2C54.8 31.9239 54.5762 31.7 54.3 31.7L54.3 31.7Z" id="Forma" fill="#CE942B" stroke="none" />
      <path d="M54.3002 32.9C54.0002 32.9 53.7002 32.6 53.7002 32.3C53.7002 32 54.0002 31.7 54.3002 31.7C54.6002 31.7 54.9002 32 54.9002 32.3C54.9002 32.6 54.6002 32.9 54.3002 32.9L54.3002 32.9ZM54.3 31.9C54.1 31.9 54 32 54 32.2C54 32.4 54.1 32.5 54.3 32.5C54.5 32.5 54.6 32.4 54.6 32.2C54.6 32 54.5 31.9 54.3 31.9L54.3 31.9ZM55.7002 36.6L48.8002 36.6C48.7002 36.6 48.7002 36.5 48.7002 36.5C48.7002 36.5 48.8002 36.4 48.8002 36.4L55.7002 36.4C55.8002 36.4 55.9002 36.5 55.9002 36.5C55.9002 36.5 55.8002 36.6 55.7002 36.6L55.7002 36.6ZM54.9001 31.1L48.2001 31.1C48.1001 31.1 48.1001 31 48.1001 31C48.1001 31 48.2001 30.9 48.2001 30.9L54.9001 30.9C55.0001 30.9 55.1001 31 55.1001 31C55.1001 31 55.0001 31.1 54.9001 31.1L54.9001 31.1Z" id="Forma" fill="#472B29" fill-rule="evenodd" stroke="none" />
      <path d="M55.6998 31.1L55.1998 31.1C55.0998 31.1 54.9998 31 54.9998 31C54.9998 31 55.0998 30.9 55.1998 30.9L55.6998 30.9C55.7998 30.9 55.8998 31 55.8998 31C55.8998 31 55.7998 31.1 55.6998 31.1L55.6998 31.1ZM56.4999 31.1L56.2999 31.1C56.1999 31.1 56.0999 31 56.0999 31C56.0999 31 56.1999 30.9 56.2999 30.9L56.4999 30.9C56.5999 30.9 56.6999 31 56.6999 31C56.6999 31 56.5999 31.1 56.4999 31.1L56.4999 31.1ZM54.2999 32.4C54.1999 32.4 54.0999 32.3 54.0999 32.3L54.0999 30.2C54.0999 29.5 53.5999 28.8 52.8999 28.8L51.9999 28.8C51.2999 28.9 50.6999 29.5 50.7999 30.2L50.7999 32.3C50.7999 32.4 50.6999 32.4 50.6999 32.4C50.6999 32.4 50.5999 32.3 50.5999 32.3L50.5999 30.2C50.4999 29.3 51.1999 28.5 52.0999 28.5L52.9999 28.5C53.8999 28.6 54.5999 29.4 54.4999 30.2L54.4999 32.3C54.3999 32.3 54.3999 32.4 54.2999 32.4L54.2999 32.4Z" id="Forma" fill="#472B29" fill-rule="evenodd" stroke="none" />
    </g>
  </g>
</svg>