<?xml version="1.0" encoding="utf-8"?>
<svg width="20.000977px" height="19.999146px" viewBox="0 0 20.000977 19.999146" version="1.1" xmlns:xlink="http://www.w3.org/1999/xlink" xmlns="http://www.w3.org/2000/svg">
  <defs>
    <path d="M8.3976 0.124171C11.6266 -0.374829 14.7866 0.644171 17.0716 2.92817C19.3566 5.21317 20.3776 8.37517 19.8756 11.6022C19.2396 15.6792 15.9556 19.0592 11.8876 19.8222C9.9316 20.1892 7.9376 19.9782 6.1226 19.2112C5.9636 19.1452 5.7256 19.0762 5.4796 19.1232L1.1966 19.9802C1.1306 19.9932 1.0656 19.9992 1.0006 19.9992C0.7376 19.9992 0.4826 19.8962 0.2936 19.7062C0.0566002 19.4702 -0.0463998 19.1312 0.0196002 18.8032L0.8776 14.5152C0.9156 14.3222 0.8856 14.1072 0.7886 13.8762C0.0216002 12.0632 -0.1904 10.0692 0.1776 8.11117C0.9406 4.04417 4.3206 0.760171 8.3976 0.124171ZM17.8985 11.2941C17.3915 14.5481 14.7685 17.2471 11.5195 17.8561C9.95048 18.1521 8.35248 17.9831 6.90248 17.3691C6.49148 17.1951 6.06648 17.1071 5.64948 17.1071C5.45948 17.1071 5.27148 17.1251 5.08648 17.1621L2.27448 17.7241L2.83748 14.9071C2.95548 14.3221 2.88348 13.6961 2.63048 13.0971C2.01648 11.6471 1.84848 10.0501 2.14348 8.48012C2.75248 5.23112 5.45048 2.60812 8.70548 2.10112C11.2955 1.69812 13.8285 2.51412 15.6565 4.34212C17.4855 6.17112 18.3025 8.70512 17.8985 11.2941ZM5.00024 9.99927C5.00024 9.44727 5.44824 8.99927 6.00024 8.99927C6.55224 8.99927 7.00024 9.44727 7.00024 9.99927C7.00024 10.5513 6.55224 10.9993 6.00024 10.9993C5.44824 10.9993 5.00024 10.5513 5.00024 9.99927ZM10.0002 8.99927C9.44824 8.99927 9.00024 9.44727 9.00024 9.99927C9.00024 10.5513 9.44824 10.9993 10.0002 10.9993C10.5522 10.9993 11.0002 10.5513 11.0002 9.99927C11.0002 9.44727 10.5522 8.99927 10.0002 8.99927ZM14.0002 8.99927C13.4482 8.99927 13.0002 9.44727 13.0002 9.99927C13.0002 10.5513 13.4482 10.9993 14.0002 10.9993C14.5522 10.9993 15.0002 10.5513 15.0002 9.99927C15.0002 9.44727 14.5522 8.99927 14.0002 8.99927Z" id="path_1" />
    <clipPath id="mask_1">
      <use xlink:href="#path_1" />
    </clipPath>
  </defs>
  <g id="message-circle">
    <path d="M8.3976 0.124171C11.6266 -0.374829 14.7866 0.644171 17.0716 2.92817C19.3566 5.21317 20.3776 8.37517 19.8756 11.6022C19.2396 15.6792 15.9556 19.0592 11.8876 19.8222C9.9316 20.1892 7.9376 19.9782 6.1226 19.2112C5.9636 19.1452 5.7256 19.0762 5.4796 19.1232L1.1966 19.9802C1.1306 19.9932 1.0656 19.9992 1.0006 19.9992C0.7376 19.9992 0.4826 19.8962 0.2936 19.7062C0.0566002 19.4702 -0.0463998 19.1312 0.0196002 18.8032L0.8776 14.5152C0.9156 14.3222 0.8856 14.1072 0.7886 13.8762C0.0216002 12.0632 -0.1904 10.0692 0.1776 8.11117C0.9406 4.04417 4.3206 0.760171 8.3976 0.124171ZM17.8985 11.2941C17.3915 14.5481 14.7685 17.2471 11.5195 17.8561C9.95048 18.1521 8.35248 17.9831 6.90248 17.3691C6.49148 17.1951 6.06648 17.1071 5.64948 17.1071C5.45948 17.1071 5.27148 17.1251 5.08648 17.1621L2.27448 17.7241L2.83748 14.9071C2.95548 14.3221 2.88348 13.6961 2.63048 13.0971C2.01648 11.6471 1.84848 10.0501 2.14348 8.48012C2.75248 5.23112 5.45048 2.60812 8.70548 2.10112C11.2955 1.69812 13.8285 2.51412 15.6565 4.34212C17.4855 6.17112 18.3025 8.70512 17.8985 11.2941ZM5.00024 9.99927C5.00024 9.44727 5.44824 8.99927 6.00024 8.99927C6.55224 8.99927 7.00024 9.44727 7.00024 9.99927C7.00024 10.5513 6.55224 10.9993 6.00024 10.9993C5.44824 10.9993 5.00024 10.5513 5.00024 9.99927ZM10.0002 8.99927C9.44824 8.99927 9.00024 9.44727 9.00024 9.99927C9.00024 10.5513 9.44824 10.9993 10.0002 10.9993C10.5522 10.9993 11.0002 10.5513 11.0002 9.99927C11.0002 9.44727 10.5522 8.99927 10.0002 8.99927ZM14.0002 8.99927C13.4482 8.99927 13.0002 9.44727 13.0002 9.99927C13.0002 10.5513 13.4482 10.9993 14.0002 10.9993C14.5522 10.9993 15.0002 10.5513 15.0002 9.99927C15.0002 9.44727 14.5522 8.99927 14.0002 8.99927Z" id="🎨-Icon-Сolor" fill="#FFFFFF" fill-rule="evenodd" stroke="none" />
  </g>
</svg>