<?xml version="1.0" encoding="utf-8"?>
<svg width="18.000244px" height="18px" viewBox="0 0 18.000244 18" version="1.1" xmlns:xlink="http://www.w3.org/1999/xlink" xmlns="http://www.w3.org/2000/svg">
  <defs>
    <path d="M2 8C2 4.691 4.691 2 8 2C11.309 2 14 4.691 14 8C14 11.309 11.309 14 8 14C4.691 14 2 11.309 2 8M17.707 16.293L14.312 12.897C15.365 11.543 16 9.846 16 8C16 3.589 12.411 0 8 0C3.589 0 0 3.589 0 8C0 12.411 3.589 16 8 16C9.846 16 11.543 15.365 12.897 14.312L16.293 17.707C16.488 17.902 16.744 18 17 18C17.256 18 17.512 17.902 17.707 17.707C18.098 17.316 18.098 16.684 17.707 16.293" id="path_1" />
    <clipPath id="mask_1">
      <use xlink:href="#path_1" />
    </clipPath>
  </defs>
  <g id="search">
    <path d="M2 8C2 4.691 4.691 2 8 2C11.309 2 14 4.691 14 8C14 11.309 11.309 14 8 14C4.691 14 2 11.309 2 8M17.707 16.293L14.312 12.897C15.365 11.543 16 9.846 16 8C16 3.589 12.411 0 8 0C3.589 0 0 3.589 0 8C0 12.411 3.589 16 8 16C9.846 16 11.543 15.365 12.897 14.312L16.293 17.707C16.488 17.902 16.744 18 17 18C17.256 18 17.512 17.902 17.707 17.707C18.098 17.316 18.098 16.684 17.707 16.293" id="🎨-Icon-Сolor" fill="#FFFFFF" fill-rule="evenodd" stroke="none" />
  </g>
</svg>