<?xml version="1.0" encoding="utf-8"?>
<svg xmlns="http://www.w3.org/2000/svg" viewBox="0 0 32 32" width="200" height="200">
  <path d="M18.5 0C17.121 0 16 1.121 16 2.5C16 3.879 17.121 5 18.5 5C18.777 5 19 5.227 19 5.5C19 5.687 18.934 6 18.5 6C18 6 18 5.9181875 18 5.6171875L16 5.6171875C16 7.0901875 16.957 8 18.5 8C19.926 8 21 6.926 21 5.5C21 4.121 19.879 3 18.5 3C18.223 3 18 2.773 18 2.5C18 2.227 18.223 2 18.5 2C18.949 2 19 2.28525 19 2.40625L21 2.40625C21 1.23825 20.125 0 18.5 0 z M 23 0L23 8L25 8L25 0L23 0 z M 27 0L27 8L29 8L29 5L29.5 5C30.869063 5 32 3.8690628 32 2.5C32 1.1309372 30.869063 0 29.5 0L27 0 z M 29 2L29.5 2C29.786937 2 30 2.2130628 30 2.5C30 2.7869372 29.786937 3 29.5 3L29 3L29 2 z M 8.6503906 3.0058594C8.1255067 3.0058594 7.6010996 3.1771036 7.1738281 3.5214844L7.125 3.5605469L3.9804688 6.8046875L4.046875 6.7421875C3.0062406 7.6384134 2.7194504 9.0541178 3.1660156 10.244141C4.0086833 12.674074 6.1568506 17.372953 10.394531 21.605469C14.641274 25.857394 19.389499 27.91343 21.738281 28.830078L21.761719 28.837891L21.785156 28.845703C22.999558 29.252758 24.311449 28.962441 25.251953 28.158203L25.28125 28.132812L28.40625 25.007812C29.235762 24.178301 29.235762 22.724043 28.40625 21.894531L24.308594 17.792969C23.476725 16.9611 22.023275 16.9611 21.191406 17.792969L19.207031 19.777344C18.496637 19.438281 16.74879 18.558644 15.087891 16.974609C13.448585 15.411343 12.61169 13.604382 12.308594 12.90625L14.308594 10.90625C15.186189 10.028655 15.236115 8.5219515 14.224609 7.7167969L14.316406 7.8007812L10.173828 3.5605469L10.126953 3.5214844C9.6996708 3.1771284 9.1752746 3.0058594 8.6503906 3.0058594 z M 8.6523438 5C8.7236064 4.9998777 8.7939074 5.026734 8.8632812 5.0800781L12.929688 9.2441406L12.978516 9.2832031C12.967016 9.2740531 13.016941 9.3697821 12.894531 9.4921875L9.9375 12.449219L10.166016 13.052734C10.166016 13.052734 11.294663 16.121404 13.707031 18.421875C16.079259 20.684317 19.003906 21.919922 19.003906 21.919922L19.626953 22.185547L22.605469 19.207031C22.7736 19.0389 22.7264 19.0389 22.894531 19.207031L26.992188 23.308594C27.162675 23.479082 27.162676 23.423262 26.992188 23.59375L23.945312 26.640625C23.481361 27.034971 23.00205 27.13833 22.425781 26.947266C20.163651 26.062686 15.739269 24.126878 11.808594 20.191406C7.8506547 16.238292 5.7997308 11.746595 5.046875 9.5703125L5.0429688 9.5585938L5.0371094 9.5449219C4.8856915 9.1444833 4.9963719 8.5637134 5.3515625 8.2578125L5.3847656 8.2285156L8.4394531 5.0800781C8.508857 5.0272234 8.5810811 5.0001223 8.6523438 5 z" fill="#AD7F21" />
</svg>